<?xml version="1.0" standalone="no"?>
<!DOCTYPE svg PUBLIC "-//W3C//DTD SVG 20010904//EN"
 "http://www.w3.org/TR/2001/REC-SVG-20010904/DTD/svg10.dtd">
<svg version="1.0" xmlns="http://www.w3.org/2000/svg"
 width="157.000000pt" height="157.000000pt" viewBox="0 0 157.000000 157.000000"
 preserveAspectRatio="xMidYMid meet">
<metadata>
Created by potrace 1.11, written by Peter Selinger 2001-2013
</metadata>
<g transform="translate(0.000000,157.000000) scale(0.100000,-0.100000)"
fill="#000000" stroke="none">
<path d="M704 1154 c-35 -17 -72 -49 -101 -86 l-21 -28 -6 35 c-7 37 -38 65
-71 65 -27 0 -80 -39 -111 -82 l-25 -33 6 35 c3 19 8 49 11 65 l5 30 -80 0
c-86 0 -105 -7 -72 -24 63 -34 64 -128 6 -356 -39 -152 -52 -178 -96 -203 -40
-23 -36 -34 9 -25 20 4 67 7 105 7 37 0 67 3 67 7 0 4 -7 20 -15 35 -57 110
63 474 156 474 45 0 48 -66 9 -238 -26 -120 -46 -167 -82 -197 -17 -14 -28
-28 -25 -31 3 -3 31 2 64 10 32 9 72 18 88 20 17 2 32 5 34 5 2 1 -8 10 -23
22 -16 13 -25 27 -22 38 3 9 8 32 12 51 8 45 7 44 29 115 43 144 114 234 173
218 61 -16 29 -154 -99 -430 -66 -142 -81 -233 -50 -291 43 -81 165 -81 223 1
28 39 29 101 2 123 -43 33 -128 -8 -136 -67 -8 -50 26 -72 68 -44 24 15 37 52
23 61 -16 10 -41 -17 -29 -31 8 -9 6 -14 -4 -18 -8 -3 -20 1 -27 10 -11 12
-10 20 1 40 18 31 47 43 78 32 39 -15 25 -86 -24 -122 -87 -64 -167 14 -135
131 6 24 50 121 97 216 46 94 95 205 108 246 30 92 30 171 1 200 -26 25 -84
32 -121 14z"/>
<path d="M1049 1147 c-107 -31 -179 -98 -179 -169 0 -44 25 -68 72 -68 47 0
88 40 88 86 0 58 -62 79 -94 32 -19 -27 -9 -58 19 -58 25 0 41 28 26 43 -7 7
-14 2 -20 -14 -5 -13 -10 -22 -11 -19 -8 29 -5 42 12 51 39 21 65 -34 34 -76
-18 -25 -74 -25 -92 0 -38 51 63 155 149 155 l29 0 -5 -52 c-11 -98 -78 -399
-103 -463 -18 -45 -29 -55 -61 -55 -40 0 -25 -19 21 -25 73 -11 177 9 247 48
89 50 157 139 189 247 49 163 26 265 -71 319 -49 28 -182 37 -250 18z m210
-45 c73 -36 93 -111 65 -233 -34 -146 -137 -271 -244 -294 l-32 -7 6 58 c4 33
9 66 11 74 2 8 6 26 9 40 10 62 37 183 61 275 14 55 25 101 25 102 0 10 71 0
99 -15z"/>
</g>
</svg>
